<svg width="41.39533859324643" height="41.39533859324643" viewBox="0 0 48 48" fill="none" xmlns="http://www.w3.org/2000/svg"><path fill-rule="evenodd" clip-rule="evenodd" d="M16.8914 41.823C9.42832 39.7039 -12.099 30.6482 12.2972 0.552368C25.4894 9.131 30.5728 16.679 31.5139 22.9163C25.2038 25.0817 20.2513 28.7524 20.2513 36.0374C16.8144 28.2054 15.2677 18.2441 14.1109 11.4905C13.5309 19.3799 14.7456 33.4125 16.8914 41.823Z" fill="#27ae60"></path><path fill-rule="evenodd" clip-rule="evenodd" d="M24.3722 44.2465C22.4781 39.1804 18.5433 22.7106 47.9438 23.6185C48.8066 49.4911 34.5653 48.5361 28.0978 46.7897C30.7751 41.7751 34.2216 37.2493 38.5828 33.4281C33.2327 36.2783 28.4683 39.8938 24.3722 44.2465Z" fill="#27ae60"></path></svg>