<svg class="css-1cgozl8" height="19" viewBox="0 0 19 19" width="19" xmlns="http://www.w3.org/2000/svg"><path d="M9.5 0C4.26 0 0 4.24873 0 9.47488C0 14.701 4.26 18.9498 9.5 18.9498C14.74 18.9498 19 14.701 19 9.47488C19 4.24873 14.74 0 9.5 0ZM11.34 13.1252L11.28 13.185C10.94 13.4842 10.52 13.6837 10.06 13.7834V15.08H8.7V13.7436C8.32 13.6438 7.98 13.4643 7.68001 13.2249C7.22001 12.8459 6.94 12.3273 6.86 11.7688L8.26 11.5693C8.28 11.7887 8.4 11.9882 8.6 12.1478C9.1 12.5467 9.9 12.5467 10.36 12.1278C10.64 11.8685 10.78 11.5095 10.76 11.1504C10.74 10.8113 10.58 10.5121 10.3 10.2927C9.96 10.0533 9.64 9.97355 9.26 9.89376C8.76 9.77408 8.18 9.63446 7.66 9.11583C7.16 8.59721 6.9 7.9589 6.92 7.34053C6.94 6.76207 7.2 6.22349 7.66 5.8046L7.68001 5.78466C7.70001 5.76472 7.7 5.76472 7.7 5.76472C7.98 5.52535 8.34 5.36577 8.7 5.24609V3.88969H10.06V5.22615C10.5 5.32588 10.88 5.5453 11.22 5.82456C11.56 6.12377 11.8 6.50276 11.92 6.92165L10.5 7.14106C10.46 7.04133 10.38 6.96154 10.3 6.88175C9.84 6.48281 9.06 6.48282 8.6 6.86181C8.46 7.00144 8.31999 7.18096 8.31999 7.42033C8.3 7.65969 8.44 7.91901 8.66 8.15837C8.88 8.39774 9.12 8.45758 9.58 8.55732C10.02 8.65705 10.58 8.77672 11.14 9.19561C11.74 9.63445 12.12 10.3326 12.16 11.0906C12.18 11.8286 11.9 12.5667 11.34 13.1252Z"></path></svg>