<svg class="css-1cgozl8" height="17" viewBox="0 0 19 17" width="19" xmlns="http://www.w3.org/2000/svg"><path fill-rule="evenodd" clip-rule="evenodd" d="M0.333374 2.20005V14.8C0.333374 15.9758 0.571374 16.2001 1.73337 16.2001H17.6C18.7525 16.2001 19 15.9854 19 14.8V2.20005C19 1.05205 18.7805 0.800049 17.6 0.800049H1.73337C0.575807 0.800049 0.333374 1.00048 0.333374 2.20005ZM16.802 12.9334H2.54094C4.09961 10.6607 6.87137 6.87138 7.57581 6.87138C8.25761 6.87138 10.5718 9.93295 11.6171 11.0107C11.6171 11.0107 12.9616 9.21428 13.666 9.21428C14.3845 9.21428 16.7787 12.9147 16.802 12.9334ZM12.6116 5.00005C12.6116 4.04805 13.3814 3.27828 14.3334 3.27828C15.2854 3.27828 16.0551 4.04805 16.0551 5.00005C16.0551 5.95205 15.2854 6.72182 14.3334 6.72182C13.3814 6.72182 12.6116 5.95205 12.6116 5.00005Z"></path></svg>