<svg class="css-1cgozl8" width="19" height="20" viewBox="0 0 19 20" xmlns="http://www.w3.org/2000/svg"><path d="M5.03531 19.0064C5.12303 19.0051 5.2067 18.9693 5.2681 18.9066L18.9033 5.27143C18.9652 5.20912 19 5.12483 19 5.03697C19 4.94911 18.9652 4.86482 18.9033 4.80251L14.2041 0.0967077C14.1418 0.034767 14.0575 0 13.9697 0C13.8818 0 13.7975 0.034767 13.7352 0.0967077L12.7941 1.03454L14.4569 2.69737L13.988 3.16961L12.3251 1.52009L11.384 2.46125L13.968 5.04528L13.4925 5.51088L10.9117 2.91686L9.97058 3.84805L11.6334 5.51088L11.1645 5.97314L9.50166 4.32694L8.5605 5.2681L10.2067 6.9143L9.73778 7.38655L8.09159 5.74035L7.15042 6.67818L9.73778 9.26554L9.26554 9.73779L6.67818 7.15042L5.74035 8.09159L7.38655 9.73779L6.9143 10.2067L5.2681 8.5605L4.32694 9.50166L5.97314 11.1645L5.51088 11.6168L3.84805 9.95395L2.91686 10.9117L5.51088 13.4925L5.04196 13.9647L2.4546 11.3773L1.52009 12.3251L3.18292 13.9713L2.71067 14.4403L1.06447 12.7774L0.0967076 13.7352C0.034767 13.7975 0 13.8818 0 13.9697C0 14.0575 0.034767 14.1418 0.0967076 14.2041L4.79919 18.9066C4.82999 18.938 4.86672 18.963 4.90725 18.9802C4.94778 18.9973 4.99131 19.0062 5.03531 19.0064Z"></path></svg>