<svg class="css-1cgozl8" width="19" height="19" viewBox="0 0 19 19" xmlns="http://www.w3.org/2000/svg"><path d="M17.3402 9.88403C17.3498 9.71805 17.3562 9.55087 17.3562 9.38489C17.3562 4.99119 14.0691 1.28775 9.71047 0.770054L9.45172 2.94935C12.7069 3.33597 15.1617 6.10258 15.1617 9.38489V9.38728L13.5418 9.01762L15.6485 12.3684L19 10.2627L17.3402 9.88403ZM8.67808 15.8685C7.52918 15.8685 6.42038 15.5689 5.43826 15.0003L6.56601 13.7916L2.61041 13.9294L2.74706 17.885L3.91232 16.6358C5.32914 17.5694 6.97159 18.0626 8.67828 18.0626C11.4353 18.0626 13.9669 16.7962 15.6237 14.5877L13.8684 13.2707C12.6297 14.9217 10.7381 15.8685 8.67808 15.8685ZM2.19446 9.38489C2.19446 7.07094 3.45068 4.92516 5.43407 3.77446L5.91645 5.35387L7.77496 1.8595L4.28118 0L4.77992 1.63327C1.86948 3.09937 0 6.11734 0 9.38489C0 10.5691 0.235405 11.7184 0.699433 12.8009L2.71614 11.9362C2.37001 11.1287 2.19446 10.2703 2.19446 9.38489Z"></path></svg>