<svg class="css-1cgozl8" height="16" viewBox="0 0 18 16" width="18" xmlns="http://www.w3.org/2000/svg"><path d="M2.14831 3.0311C0.906318 4.54693 0 6.69731 0 9.41172V15.1226H5.94142C6.91487 15.1226 7.68692 14.3118 7.68692 13.2895V6.97933H3.32317C3.55814 6.02752 3.96095 5.25198 4.46446 4.61744C5.00153 3.94765 5.63931 3.41887 6.54563 3.06635C7.21698 2.81958 7.65335 2.14979 7.65335 1.4095V0.034668C4.90083 0.457693 3.3903 1.48 2.14831 3.0311Z"></path><path d="M16.3472 3.03156C17.0185 2.78481 17.4549 2.11504 17.4549 1.37478V0C14.6688 0.49351 13.1583 1.48053 11.9163 3.03156C10.6743 4.58259 9.76794 6.69764 9.76794 9.41194V15.1226H15.7094C16.6828 15.1226 17.4549 14.3118 17.4549 13.2895V6.97964H13.1247C13.3597 6.02787 13.7625 5.25236 14.266 4.61784C14.8031 3.91283 15.4408 3.38407 16.3472 3.03156Z"></path></svg>