<svg fill="#1269d3" viewBox="-1 0 16 16" xmlns="http://www.w3.org/2000/svg"><path d="M11.816 10.036c-.865.732-2.056.755-2.864.655a6.681 6.681 0 0 1 2.019-1.414c2.939-1.303 2.67-5.422 2.653-5.468-.026-.73-1.205-.698-1.153.087 0 .029.175 2.693-1.353 3.948a3.423 3.423 0 0 0-.963-2.307 6.902 6.902 0 0 0 1.442-2.691.579.579 0 0 0-1.12-.289 5.752 5.752 0 0 1-1.179 2.215c-.865-1.052-.303-3.057-.288-3.08a.577.577 0 0 0-1.105-.329c-.04.133-.963 3.303 1.096 4.678 1.079.719 1.033 1.939.96 2.446a8.046 8.046 0 0 0-2.324 1.938 8.199 8.199 0 0 0-.289-1.551 4.802 4.802 0 0 0 .796-1.73.58.58 0 1 0-1.136-.229 3.98 3.98 0 0 1-.236.67c-.545-.9-.866-.92-1.587-1.748a5.062 5.062 0 0 0 1.246-3.424.577.577 0 0 0-.675-.577c-.917.153-.017 1.41-1.26 3.032a4.993 4.993 0 0 1-.66-1.662.577.577 0 0 0-.652-.504c-1.194.141.072 2.506.75 3.417.617 1.235 2.526 1.301 2.564 5.056A12.914 12.914 0 0 0 3.59 9.27c.326-.387.514-.871.534-1.376a.577.577 0 1 0-1.154.023c-.041.298-.18.574-.395.785C1.188 7.53 1.528 5.297 1.528 3.855a.577.577 0 0 0-.767-.548c-.464.147-.386.652-.386 1.125 0 1.485-.24 4.222 1.975 5.509.346.23 1.301.513 2.677 1.531.741.551.383 1.333.176 2.019a.577.577 0 0 0 .553.747h2.487a.577.577 0 0 0 .553-.741l-.392-1.3a.289.289 0 0 1 .317-.37c1.341.184 2.74 0 3.799-.865a.581.581 0 1 0-.704-.926Z"></path></svg>