<svg fill="#27ae60" viewBox="-2.5 0 15 15" xmlns="http://www.w3.org/2000/svg"><path d="M0.432401 12.0864L2.4629 8.58307H1.61924C1.56205 8.58307 1.50485 8.55447 1.47625 8.49728C1.44765 8.45438 1.44765 8.38288 1.47625 8.33998L3.27797 5.33712H2.69169C2.6488 5.33712 2.6202 5.30853 2.5916 5.27993C2.5773 5.25133 2.5773 5.20843 2.5916 5.16553L4.97959 1.03303C4.99389 1.00443 5.03678 0.97583 5.07968 0.97583C5.12258 0.97583 5.16548 0.990129 5.17978 1.03303L7.56777 5.17983C7.58207 5.20843 7.58207 5.25133 7.56777 5.29423C7.55347 5.32283 7.51057 5.35142 7.46767 5.35142H6.8814L8.68311 8.35428C8.71171 8.39718 8.71171 8.46868 8.68311 8.51158C8.65451 8.55447 8.59732 8.59737 8.54012 8.59737H7.69646L9.74126 12.0864C9.78416 12.1579 9.78416 12.2437 9.74126 12.3152C9.69837 12.3867 9.62687 12.4296 9.55537 12.4296H5.70885V14.4029C5.70885 14.4601 5.65166 14.5173 5.59446 14.5173H4.57921C4.52201 14.5173 4.46481 14.4601 4.46481 14.4029V12.4153H0.618293C0.532497 12.4153 0.460999 12.3724 0.432401 12.3009C0.389503 12.2294 0.389503 12.1436 0.432401 12.0864Z"></path></svg>