<svg width="16" height="14" viewBox="0 0 21 14" fill="none" xmlns="http://www.w3.org/2000/svg"><path d="M2.25065 0.944336C2.06168 0.944336 1.88231 0.984031 1.71719 1.04952L9.96699 8.21737C10.2595 8.47153 10.6068 8.47126 10.8987 8.21737L19.1334 1.04952C18.9683 0.984031 18.7889 0.944336 18.6 0.944336H2.25065ZM0.823096 2.18404C0.81396 2.24978 0.808189 2.31861 0.808189 2.38692V12.0042C0.808189 12.2015 0.849808 12.3892 0.920903 12.5601L6.63114 7.22559L0.823096 2.18404ZM20.0275 2.18404L14.2346 7.22559L19.9298 12.5677C20.0026 12.395 20.0425 12.204 20.0425 12.0042V2.38692C20.0425 2.31861 20.0364 2.24978 20.0275 2.18404ZM13.1377 8.17229L11.8453 9.29931C11.0412 9.99906 9.82451 9.99788 9.02027 9.29931L7.72796 8.17982L2.10038 13.4392C2.149 13.444 2.20072 13.4467 2.25065 13.4467H18.6C18.6474 13.4467 18.6965 13.4436 18.7427 13.4392L13.1377 8.17229Z" fill="white"></path></svg>