<svg width="32" height="32" fill="none" xmlns="http://www.w3.org/2000/svg" viewBox="0 0 32 32" color="#27ae60"><path d="M13.541 10.233a2.34 2.34 0 1 0-3.308 3.307l16.54 16.54a2.34 2.34 0 1 0 3.308-3.307l-16.54-16.54Z" stroke="#27ae60" stroke-width="2.375" stroke-miterlimit="10"></path><path d="M10.239 10.24a2.35 2.35 0 0 0 0 3.32l3.33 3.33 3.321-3.32-3.33-3.33a2.347 2.347 0 0 0-3.321 0ZM.563 11.25h3.562H.562Zm3.13-7.557 2.519 2.519-2.519-2.519ZM11.25.563v3.562V.562Zm7.557 3.13-2.519 2.519 2.519-2.519ZM6.212 16.288l-2.519 2.519 2.519-2.519Z" fill="#27ae60"></path><path d="m6.212 16.288-2.519 2.519M.563 11.25h3.562H.562Zm3.13-7.557 2.519 2.519-2.519-2.519ZM11.25.563v3.562V.562Zm7.557 3.13-2.519 2.519 2.519-2.519Z" stroke="#27ae60" stroke-width="2.375"></path></svg>