<svg fill="#5B27F0" viewBox="-0.5 -1 15 15" xmlns="http://www.w3.org/2000/svg"><path d="M13.52 5.865h-.156l-1.538-3.197a.709.709 0 1 0-1.06-.914l-.653-.507A2.645 2.645 0 0 0 7.928.754a.708.708 0 0 0-1.401 0 2.645 2.645 0 0 0-2.19.497l-.652.507a.708.708 0 1 0-1.06.914L1.09 5.865H.935a.182.182 0 0 0-.18.196 2.34 2.34 0 0 0 4.662 0 .182.182 0 0 0-.18-.196h-.154L3.54 2.668l.013-.012.823-.503a1.966 1.966 0 0 1 1.792-.13c.085.03.173.055.261.073v7.711l-3.317 1.054a.522.522 0 0 0-.369.503v.034a.522.522 0 0 0 .523.522h7.915a.522.522 0 0 0 .522-.522v-.04a.523.523 0 0 0-.363-.497L8.027 9.817V2.093a1.75 1.75 0 0 0 .261-.073 1.967 1.967 0 0 1 1.793.13l.823.503.013.012-1.546 3.2h-.152a.182.182 0 0 0-.18.196 2.34 2.34 0 0 0 4.662 0 .182.182 0 0 0-.182-.196Zm-9.198 0H1.84l1.238-2.568 1.243 2.568Zm5.809 0 1.238-2.568 1.237 2.568h-2.475Z"></path></svg>