<svg viewBox="-1.5 0 15 15" fill="#F79F22" xmlns="http://www.w3.org/2000/svg"><path d="M11.525 10.17 8.048 4.663a1.338 1.338 0 0 1-.206-.714V1.793h.433c.24 0 .445-.185.457-.424a.445.445 0 0 0-.445-.467h-4.44a.454.454 0 0 0-.458.424.445.445 0 0 0 .445.466h.445V3.95c0 .252-.07.5-.206.713L.597 10.17a2.06 2.06 0 0 0-.07 2.11c.37.679 1.09 1.09 1.863 1.09h7.341c.773 0 1.494-.411 1.863-1.09a2.06 2.06 0 0 0-.07-2.11ZM4.827 5.138c.224-.356.343-.768.343-1.189V1.904a.111.111 0 0 1 .111-.111H6.84a.111.111 0 0 1 .111.11V3.95c0 .42.12.833.344 1.189l1.609 2.547a.223.223 0 0 1-.189.342H3.406a.223.223 0 0 1-.188-.342l1.609-2.547Z"></path></svg>